<?xml version="1.0" encoding="utf-8"?>
<!-- Generator: Adobe Illustrator 26.0.1, SVG Export Plug-In . SVG Version: 6.00 Build 0)  -->
<svg version="1.1" id="Layer_1" xmlns="http://www.w3.org/2000/svg" xmlns:xlink="http://www.w3.org/1999/xlink" x="0px" y="0px"
	 viewBox="0 0 40 40" style="enable-background:new 0 0 40 40;" xml:space="preserve">
<style type="text/css">
	.st0{fill:#7390F9;}
	.st1{fill:#FF774C;}
	.st2{fill:#242F65;}
</style>
<g>
	<path class="st0" d="M37.1,8.3c3.4,3.4,3.4,8.9,0,12.3l-11,11c-3.4,3.4-8.9,3.4-12.3,0c-3.4-3.4-3.4-8.9,0-12.3l11-11
		C28.2,4.9,33.7,4.9,37.1,8.3z"/>
	<path class="st1" d="M26.2,31.6c-3.4,3.4-8.9,3.4-12.3,0l-11-11c-3.4-3.4-3.4-8.9,0-12.3c3.4-3.4,8.9-3.4,12.3,0l11,11
		C29.6,22.7,29.6,28.2,26.2,31.6z"/>
	<path class="st2" d="M26.7,31.1l-0.5,0.5c-1.7,1.7-3.9,2.5-6.1,2.6c-2.2,0-4.5-0.8-6.2-2.6l-0.5-0.5c-2.9-3.4-2.8-8.6,0.5-11.8
		l6.2-6.2l6.2,6.2C29.4,22.6,29.6,27.7,26.7,31.1z"/>
</g>
</svg>
